<svg width="157" height="110" fill="none" xmlns="http://www.w3.org/2000/svg"><g clip-path="url(#a)" fill="#fff"><path d="M80.3 0h-3.7v20h3.7V0ZM148.3 75.8c0 3.1 1.3 5.2 5.3 5.2a9.313 9.313 0 0 0 3.1-.5v-2.8c-.738.265-1.516.4-2.3.4-1.9 0-2.4-.9-2.4-2.7V67h5v-2.7h-5v-5.1h-3v3.3c0 1.2-.5 1.8-1.8 1.8h-1.5V67h2.6v8.8Zm-19.4 4.8h3.7V68.4a4.93 4.93 0 0 1 3.7-1.5c2.7 0 3.3 1.5 3.3 4.3v9.4h3.7V70.5c0-5.5-2.9-6.6-5.7-6.6-2.9 0-4.6 1.1-5.5 2.5v-2.1H129v16.3h-.1Zm-8.5-1.9c0 1.1.5 2.3 2.7 2.3a5.52 5.52 0 0 0 2.6-.6v-2.5a3.195 3.195 0 0 1-1.4.3c-.7 0-1-.3-1-1v-7c0-4-1.5-6.3-6.4-6.3-3.2 0-7.1 1-7.2 6h3.5c0-2.1.8-3.2 3.3-3.2 2.7 0 3.1 1.4 3.1 4v.4l-3.9.3c-2.7.2-6.7 1-6.7 5 0 2.8 2 4.6 5.3 4.6a7.36 7.36 0 0 0 5.8-2.5v.2h.3Zm-.6-1.9a6.573 6.573 0 0 1-4.2 1.6c-1.9 0-2.8-.8-2.8-2.2 0-1.7 1.4-2.5 3.8-2.7l3.2-.3v3.6Zm-21.4 3.8h3.7V68.4c.5-.8 1.6-1.5 3.5-1.5a6.975 6.975 0 0 1 2.4.4v-3.1a4.855 4.855 0 0 0-2-.3 4.591 4.591 0 0 0-4.5 2.5v-2.2h-3.1v16.4Zm-19.1-6.3c0 5.6 2.9 6.7 5.6 6.7a6.426 6.426 0 0 0 5.5-2.5v2.1h3.1V64.2h-3.7v12.2a4.928 4.928 0 0 1-3.7 1.5c-2.6 0-3.2-1.5-3.2-4.3v-9.4h-3.7v10.1h.1Zm-8.2 4.4c0 1.1.5 2.3 2.7 2.3a5.52 5.52 0 0 0 2.6-.6v-2.5a3.194 3.194 0 0 1-1.4.3c-.7 0-1-.3-1-1v-7c0-4-1.5-6.3-6.4-6.3-3.2 0-7.1 1-7.2 6h3.5c0-2.1.8-3.2 3.3-3.2 2.7 0 3.1 1.4 3.1 4v.4l-3.9.3c-2.7.2-6.7 1-6.7 5 0 2.8 2 4.6 5.3 4.6a7.36 7.36 0 0 0 5.8-2.5v.2h.3Zm-.6-1.9a6.573 6.573 0 0 1-4.2 1.6c-1.9 0-2.8-.8-2.8-2.2 0-1.7 1.4-2.5 3.8-2.7l3.2-.3v3.6Zm-21.8-1c0 3.1 1.3 5.2 5.3 5.2a9.311 9.311 0 0 0 3.1-.5v-2.8c-.738.265-1.516.4-2.3.4-1.9 0-2.4-.9-2.4-2.7V67h5v-2.7h-5v-5.1h-3v3.3c0 1.2-.5 1.8-1.8 1.8h-1.5V67h2.6v8.8Zm-19.1-.5c.3 3.8 3.4 5.7 7.5 5.7 3.4 0 6.9-1.3 6.9-5 0-3.2-2.5-4.2-5-4.9-3-.8-5.1-1-5.1-2.7 0-1.3 1.2-1.9 2.7-1.9 1.9 0 3.1 1.1 3.2 2.6h3.6c-.2-3.5-3-5.1-6.7-5.1-3.2 0-6.4 1.3-6.4 4.7 0 3.1 2.6 4.1 5 4.7 3 .9 5 1.1 5 2.9 0 1.5-1.3 2.2-3.2 2.2-2.3 0-3.9-1.2-4-3.1h-3.5v-.1Zm-6.7-.1c-.3 1.9-1.7 3-3.9 3-2.8 0-4.2-1.8-4.3-5.3h11.8v-.6c0-6.6-4.2-8.5-7.7-8.5-3.7 0-7.7 2.1-7.7 8.5s3.8 8.6 7.8 8.6c2.9 0 6.9-1.2 7.5-5.8h-3.5v.1Zm-8.1-4.4c.3-2.8 1.7-4.2 4.1-4.2 2.4 0 3.8 1.5 4 4.2h-8.1ZM0 80.6h3.7V68.4c.5-.8 1.6-1.5 3.5-1.5a6.975 6.975 0 0 1 2.4.4v-3.1a4.855 4.855 0 0 0-2-.3 4.589 4.589 0 0 0-4.5 2.5v-2.2H0v16.4ZM99.8 32.5h1.8l4.7-5h-4.2l-2.3 5Zm5.9 14.1c-.3 1.9-1.7 3-3.9 3-2.8 0-4.2-1.8-4.3-5.3h11.8v-.6c0-6.6-4.2-8.5-7.7-8.5-3.7 0-7.7 2.1-7.7 8.5s3.8 8.6 7.8 8.6c2.9 0 6.9-1.2 7.5-5.8h-3.5v.1Zm-8.2-4.4c.3-2.8 1.7-4.2 4.1-4.2 2.4 0 3.8 1.5 4 4.2h-8.1ZM84.8 52h3.7V38.3H92v-2.7h-3.5v-3.1c0-1.6.5-2.6 2.1-2.6.474.003.945.07 1.4.2v-2.8a4.31 4.31 0 0 0-2-.3c-3.6 0-5.1 2.2-5.1 5.3v3.4h-2.6v2.7h2.6V52h-.1ZM76 50.1c0 1.1.5 2.3 2.7 2.3a5.52 5.52 0 0 0 2.6-.6v-2.5a3.196 3.196 0 0 1-1.4.3c-.7 0-1-.3-1-1v-7c0-4-1.5-6.3-6.4-6.3-3.2 0-7.1 1-7.2 6h3.5c0-2.1.8-3.2 3.3-3.2 2.7 0 3.1 1.4 3.1 4v.4l-3.9.3c-2.7.2-6.7 1-6.7 5 0 2.8 2 4.6 5.3 4.6a7.36 7.36 0 0 0 5.8-2.5v.2h.3Zm-.6-1.9a6.573 6.573 0 0 1-4.2 1.6c-1.9 0-2.8-.8-2.8-2.2 0-1.7 1.4-2.5 3.8-2.7l3.2-.3v3.6Zm-17.1-2a3.272 3.272 0 0 1-3.6 3.2c-2.8 0-4.3-1.9-4.3-5.6 0-3.7 1.4-5.6 4.3-5.6a3.271 3.271 0 0 1 3.6 3.2h3.6c-.3-4-3.2-6.2-7.1-6.2-3.7 0-8 1.8-8 8.5 0 6.8 4.3 8.6 8 8.6 4 0 6.9-2.2 7.1-6.2h-3.6v.1ZM58.5 94.5a5.992 5.992 0 0 0-4.6-2c-3.6 0-7.1 2.4-7.1 8.6 0 6.2 3.5 8.5 7.1 8.5a6.06 6.06 0 0 0 5.1-2.4v2h3.2V86.1h-3.7v8.4Zm0 10.7a4.737 4.737 0 0 1-3.6 1.4c-2.9 0-4.4-2-4.4-5.6 0-3.5 1.5-5.5 4.4-5.5a4.9 4.9 0 0 1 3.6 1.4v8.3Zm-39.4 4.1h3.7V92.9h-3.7v16.4Zm17.6-16.8c-2.9 0-4.6 1.1-5.5 2.5v-2.1h-3.1v16.4h3.7V97.1a4.928 4.928 0 0 1 3.7-1.5c2.7 0 3.3 1.5 3.3 4.3v9.4h3.7V99.2c0-5.6-3-6.7-5.8-6.7ZM0 109.3h14.6v-3.1H3.8v-7h8.9v-3.1H3.8v-6.8h10.9v-3.1H0v23.1Zm112.5-3.8-4.3-12.6h-3.9l6.1 16.4h4l6.1-16.4h-3.8l-4.2 12.6Zm-36.4-13c-2.9 0-4.3 1.1-5 2.1v-8.5h-3.7v23.2h3.7V97.1a4.928 4.928 0 0 1 3.7-1.5c2.7 0 3.3 1.5 3.3 4.3v9.4h3.7V99.2c0-5.6-2.9-6.7-5.7-6.7Zm54.1 0c-3.7 0-7.7 2.1-7.7 8.5s3.8 8.6 7.8 8.6c2.9 0 6.9-1.2 7.5-5.8h-3.5c-.3 1.9-1.7 3-3.9 3-2.8 0-4.2-1.8-4.3-5.3h11.8v-.6c0-6.5-4.2-8.4-7.7-8.4Zm-4.1 6.9c.3-2.8 1.7-4.2 4.1-4.2 2.4 0 3.8 1.5 4 4.2h-8.1Zm24.9-6.9c-2.9 0-4.6 1.1-5.5 2.5v-2.1h-3.1v16.4h3.7V97.1a4.93 4.93 0 0 1 3.7-1.5c2.7 0 3.3 1.5 3.3 4.3v9.4h3.7V99.2c-.1-5.6-3.1-6.7-5.8-6.7Zm-56.9 0c-3.8 0-8 1.9-8 8.5 0 6.7 4.3 8.6 8 8.6 3.8 0 8-1.9 8-8.6.1-6.6-4.2-8.5-8-8.5Zm0 14.1c-2.9 0-4.3-1.9-4.3-5.6 0-3.7 1.5-5.6 4.3-5.6 2.9 0 4.3 1.8 4.3 5.6.1 3.7-1.4 5.6-4.3 5.6Zm-75-16.9h3.7v-3.6h-3.7v3.6Z"/><path d="M151 92.5c-2.9 0-4.6 1.1-5.5 2.5v-2.1h-3.1v16.4h3.7V97.1a4.93 4.93 0 0 1 3.7-1.5c2.7 0 3.3 1.5 3.3 4.3v9.4h3.7V99.2c-.1-5.6-3.1-6.7-5.8-6.7Z"/></g><defs><clipPath id="a"><path fill="#fff" d="M0 0h157v109.6H0z"/></clipPath></defs></svg>